<svg width="158" height="158" viewBox="0 0 158 158" fill="none" xmlns="http://www.w3.org/2000/svg">
<path d="M78.94 157.88C122.54 157.88 157.88 122.54 157.88 78.94C157.88 35.34 122.54 0 78.94 0C35.34 0 0 35.34 0 78.94C0 122.54 35.34 157.88 78.94 157.88Z" fill="black"/>
<path d="M115.95 121.83C115.95 121.64 115.91 121.4 115.81 121.11C115.3 118.94 114.9 116.81 114.58 114.82C114.58 114.8 114.58 114.79 114.58 114.77C114.5 114.17 114.41 113.64 114.33 113.09C113.53 107.46 113.43 103.35 113.43 103.35C113.2 95.95 110 88.14 104.47 83.84C103.53 83.11 103.62 81.64 104.5 80.83C109.58 76.21 113.3 68.76 113.44 61.3C113.7 47.76 102.29 35.27 88.67 35.27H42.98C42.4 35.27 41.93 35.73 41.93 36.31V46.14C41.93 46.71 42.4 47.18 42.98 47.18H85.34C95.59 47.18 100.95 53.45 100.95 60.53C100.95 70.85 93.15 75.79 84.68 76.06C84.09 76.08 83.6 75.6 83.6 75.02V65.35C83.6 64.78 83.13 64.31 82.55 64.31H42.97C42.39 64.31 41.92 64.78 41.92 65.35V75.18C41.92 75.76 42.39 76.22 42.97 76.22H82.55C83.13 76.22 83.6 76.69 83.6 77.26V87.44C83.6 88.01 83.13 88.48 82.55 88.48H42.97C42.39 88.48 41.92 88.95 41.92 89.52V99.35C41.92 99.92 42.39 100.39 42.97 100.39H82.55C83.13 100.39 83.6 99.93 83.6 99.35V89.61C83.6 88.99 84.14 88.53 84.77 88.57C92.41 89.11 98.22 92.74 100.45 99.25C100.87 100.77 101.23 102.67 101.43 104.75L102.58 114.98C102.65 115.68 102.74 116.39 102.86 117.11C102.97 117.84 103.08 118.54 103.22 119.22C103.35 119.9 103.49 120.52 103.66 121.11C103.68 121.2 103.71 121.28 103.73 121.37C103.88 121.91 104.28 122.32 104.78 122.52C104.93 122.6 105.09 122.64 105.27 122.64H115.24C115.68 122.64 116 122.26 115.95 121.84" fill="white"/>
</svg>
